# xmcd
#
# Track frame offsets: 
#        150
#        20450
#        35112
#        52225
#        64447
#        84345
#        105877
#        129507
#        148945
#        166752
#        179435
#
# Disc length: 2654 seconds
#
# Revision: 0
# Processed by: cddbd v1.5.1PL0 Copyright (c) Steve Scherf et al.
# Submitted via: ExactAudioCopy v0.95a4
#
DISCID=990a5c0b
DTITLE=Grady - Y.U. So Shady?
DYEAR=2004
DGENRE=Blues Rock
TTITLE0=Hammer In My Hand
TTITLE1=Woman Got My Devil
TTITLE2=Joe Louis
TTITLE3=Three Minute Song
TTITLE4=Black Or White
TTITLE5=Ride Like Hell
TTITLE6=Tired All The Time
TTITLE7=Tommy Johnson
TTITLE8=Just About Sunrise
TTITLE9=Reach Out Yo Hand
TTITLE10=Western Cowboy
EXTD=
EXTT0=
EXTT1=
EXTT2=
EXTT3=
EXTT4=
EXTT5=
EXTT6=
EXTT7=
EXTT8=
EXTT9=
EXTT10=
PLAYORDER=
